PathFileType	4	(x/y/z)	S05_P20_T18
DataRate	CameraRate	NumFrames	NumMarkers	Units	OrigDataRate	OrigDataStartFrame	OrigNumFrames
240	240	10	50	mm	240	176	351
Frame#	Time	Sternum			R.Acromium			L.Acromium			Top.Head			R.ASIS			L.ASIS			R.PSIS			L.PSIS			R.Great.Tro			L.Great.Tro			R.Iliac.Crest			L.Iliac.Crest			V.Sacral			R.Thigh.Upper.Post			R.Thigh.Lower.Ant			R.Thigh.Lower.Post			R.Thigh.Upper.Ant			R.Knee.Lat			R.Knee.Med			R.Shank.Upper.Post			R.Shank.Lower.Ant			R.Shank.Lower.Post			R.Shank.Upper.Ant			R.Ankle.Lat			R.Ankle.Med			R.Heel.Upper			R.Heel.Med			R.Heel.Lat			R.Toe.Lat			R.Toe.Med			R.Toe.Tip			L.Thigh.Upper.Post			L.Thigh.Lower.Ant			L.Thigh.Lower.Post			L.Thigh.Upper.Ant			L.Knee.Lat			L.Shank.Upper.Post			L.Shank.Lower.Ant			L.Shank.Lower.Post			L.Shank.Upper.Ant			L.Ankle.Lat			L.Ankle.Med			L.Heel.Upper			L.Heel.Med			L.Heel.Lat			L.Toe.Lat			L.Toe.Med			L.Toe.Tip			Cervical.Spine			Back			
		X1	Y1	Z1	X2	Y2	Z2	X3	Y3	Z3	X4	Y4	Z4	X5	Y5	Z5	X6	Y6	Z6	X7	Y7	Z7	X8	Y8	Z8	X9	Y9	Z9	X10	Y10	Z10	X11	Y11	Z11	X12	Y12	Z12	X13	Y13	Z13	X14	Y14	Z14	X15	Y15	Z15	X16	Y16	Z16	X17	Y17	Z17	X18	Y18	Z18	X19	Y19	Z19	X20	Y20	Z20	X21	Y21	Z21	X22	Y22	Z22	X23	Y23	Z23	X24	Y24	Z24	X25	Y25	Z25	X26	Y26	Z26	X27	Y27	Z27	X28	Y28	Z28	X29	Y29	Z29	X30	Y30	Z30	X31	Y31	Z31	X32	Y32	Z32	X33	Y33	Z33	X34	Y34	Z34	X35	Y35	Z35	X36	Y36	Z36	X37	Y37	Z37	X38	Y38	Z38	X39	Y39	Z39	X40	Y40	Z40	X41	Y41	Z41	X42	Y42	Z42	X43	Y43	Z43	X44	Y44	Z44	X45	Y45	Z45	X46	Y46	Z46	X47	Y47	Z47	X48	Y48	Z48	X49	Y49	Z49	X50	Y50	Z50	

176	0.72917	-417.67	1261.1	319.33	-495	1524.6	487.4	-516.96	1553.7	168.89	-499.16	1829.8	329.44	-497.6	1014.2	445.7	-491.62	1018.2	195.98	-698.11	1032.5	354.42	-694.55	1031.3	262.37	-579.57	932.22	502.36	-567.87	936.45	114.98	-584.29	1096	481.75	-581.3	1094.1	148.24	-709.24	997.25	321.47	-500.91	708.97	492.66	-443.64	645.09	437.05	-506.43	622.05	466.55	-442.72	731.48	462.22	-505.33	528.24	446.27	-495.24	518.84	315.3	-594.39	290.95	425.52	-536.6	222.09	423.66	-598.5	216.43	406.26	-530.78	298.33	443.22	-556.72	122.17	403.85	-546.31	148.78	316.96	-627.36	74.573	338.95	-617.2	42.846	311.21	-620.67	46.639	376.22	-457.98	35.56	437.17	-418.19	43.777	317.89	-357.25	61.45	365.85	-475.5	712.59	112.06	-374.22	673.15	132.28	-430.91	628.5	123.72	-410.63	756.13	121.22	-401.06	551.17	128.83	-564.14	439.52	145.41	-549.35	352.14	148.15	-611.04	385.69	165.43	-507.14	407.51	132.99	-678.9	267.66	179.85	-635.26	256.26	262.06	-749.7	268.77	241.78	-754.15	241.85	273.76	-768.86	248.49	213.93	-644.97	127.95	140.48	-607.24	117.32	253.91	-557.52	88.856	193.78	-553.69	1571.6	337.51	-681.47	1302.1	328.09
177	0.73333	-412.22	1262	319.51	-489.38	1525.5	487.49	-511.67	1554.3	168.98	-493.71	1830.5	329.33	-492.24	1014.7	446.08	-486.11	1019	196.36	-692.66	1033.3	354.55	-689.07	1032.1	262.52	-574.58	932.82	502.5	-561.74	937.36	115.2	-578.91	1096.7	481.97	-575.82	1094.9	148.51	-703.8	998.02	321.61	-497.69	709.05	492.65	-440.91	644.68	437.05	-503.91	622.18	466.52	-439.26	731.06	462.25	-503.64	528.28	446.15	-493.47	518.81	315.12	-593.59	291.32	425.36	-536.04	222.29	423.58	-597.92	216.82	406.08	-530.02	298.48	443.04	-556.42	122.33	403.74	-545.93	148.93	316.83	-627.22	74.799	338.88	-617.25	43.024	311.13	-620.56	46.875	376.17	-457.92	35.537	437.16	-418.07	43.57	317.83	-357.08	61.05	365.82	-467.68	714.34	112.18	-366.14	675.83	133	-422.38	630.65	123.99	-403.28	758.49	121.84	-392.06	553.21	129.46	-553.33	438.37	146.01	-536.88	351.34	148.82	-599.15	383.65	166	-495.76	407.47	133.63	-664.67	264.26	180.41	-620.79	253.7	262.66	-735.65	263.79	242.39	-739.44	236.68	274.29	-754.34	243.14	214.52	-627.67	125.52	140.87	-589.74	115.59	254.3	-539.39	88.341	194.12	-548.2	1572.3	337.62	-675.95	1302.7	328.49
178	0.7375	-406.78	1262.8	319.67	-483.78	1526.3	487.57	-506.36	1554.9	169.05	-488.27	1831.1	329.21	-486.87	1015.1	446.43	-480.61	1019.8	196.73	-687.19	1034	354.69	-683.58	1032.7	262.67	-569.59	933.4	502.64	-555.66	938.23	115.39	-573.49	1097.3	482.17	-570.33	1095.7	148.76	-698.36	998.76	321.76	-494.47	709.13	492.64	-438.19	644.27	437.06	-501.4	622.3	466.48	-435.82	730.63	462.28	-501.97	528.33	446.03	-491.72	518.79	314.94	-592.79	291.69	425.19	-535.48	222.49	423.49	-597.34	217.22	405.91	-529.28	298.64	442.84	-556.12	122.5	403.62	-545.56	149.07	316.7	-627.08	75.027	338.81	-617.29	43.204	311.05	-620.44	47.117	376.13	-457.86	35.516	437.15	-417.95	43.366	317.76	-356.91	60.648	365.8	-459.97	716.04	112.3	-358.19	678.4	133.71	-413.98	632.74	124.25	-396.02	760.75	122.45	-383.23	555.16	130.1	-542.59	437.03	146.62	-524.4	350.39	149.49	-587.25	381.41	166.6	-484.44	407.3	134.26	-650.31	260.65	180.99	-606.19	250.98	263.25	-721.43	258.56	243.01	-724.52	231.27	274.85	-739.63	237.54	215.14	-610.2	122.98	141.26	-572.05	113.77	254.67	-521.08	87.782	194.43	-542.71	1572.9	337.72	-670.44	1303.4	328.88
179	0.74167	-401.32	1263.6	319.83	-478.18	1527	487.63	-501.03	1555.5	169.11	-482.82	1831.7	329.06	-481.5	1015.6	446.77	-475.1	1020.5	197.08	-681.72	1034.7	354.83	-678.09	1033.4	262.82	-564.59	933.96	502.78	-549.62	939.06	115.56	-568.04	1098	482.37	-564.86	1096.5	149.01	-692.9	999.45	321.91	-491.26	709.2	492.62	-435.47	643.86	437.08	-498.89	622.43	466.45	-432.39	730.2	462.31	-500.31	528.38	445.91	-489.98	518.77	314.76	-592	292.07	425.03	-534.92	222.69	423.41	-596.76	217.62	405.72	-528.56	298.8	442.63	-555.81	122.66	403.5	-545.19	149.22	316.56	-626.92	75.256	338.73	-617.34	43.385	310.97	-620.33	47.365	376.08	-457.79	35.5	437.14	-417.83	43.167	317.68	-356.75	60.247	365.77	-452.35	717.68	112.41	-350.36	680.87	134.41	-405.74	634.74	124.52	-388.83	762.91	123.03	-374.59	557	130.73	-531.9	435.51	147.24	-511.92	349.31	150.14	-575.33	378.98	167.21	-473.18	406.99	134.88	-635.83	256.85	181.57	-591.47	248.1	263.83	-707.02	253.1	243.66	-709.4	225.64	275.43	-724.74	231.71	215.78	-592.55	120.35	141.64	-554.17	111.89	255.03	-502.62	87.197	194.71	-537.23	1573.6	337.8	-664.91	1304	329.26
180	0.74583	-395.86	1264.4	319.98	-472.59	1527.8	487.69	-495.7	1556	169.15	-477.38	1832.3	328.88	-476.12	1015.9	447.09	-469.6	1021.2	197.41	-676.25	1035.4	354.97	-672.59	1034	262.98	-559.59	934.5	502.92	-543.63	939.85	115.72	-562.56	1098.5	482.56	-559.39	1097.2	149.25	-687.44	1000.1	322.07	-488.06	709.26	492.61	-432.75	643.45	437.1	-496.39	622.56	466.41	-428.96	729.75	462.35	-498.67	528.42	445.79	-488.26	518.75	314.58	-591.21	292.45	424.86	-534.37	222.91	423.32	-596.19	218.03	405.54	-527.85	298.96	442.41	-555.51	122.83	403.38	-544.82	149.37	316.42	-626.76	75.485	338.64	-617.37	43.566	310.89	-620.21	47.616	376.02	-457.73	35.487	437.13	-417.71	42.972	317.61	-356.58	59.847	365.75	-444.84	719.24	112.52	-342.67	683.21	135.08	-397.65	636.64	124.79	-381.73	764.96	123.6	-366.13	558.74	131.37	-521.26	433.81	147.88	-499.44	348.09	150.78	-563.41	376.38	167.84	-461.98	406.57	135.49	-621.23	252.89	182.15	-576.64	245.07	264.39	-692.43	247.42	244.32	-694.06	219.82	276.03	-709.65	225.67	216.44	-574.73	117.65	142	-536.1	109.96	255.36	-484	86.605	194.95	-531.75	1574.1	337.87	-659.39	1304.5	329.64
181	0.75	-390.39	1265.1	320.12	-467.02	1528.5	487.73	-490.36	1556.5	169.19	-471.94	1832.9	328.69	-470.73	1016.3	447.39	-464.09	1021.9	197.73	-670.77	1036	355.12	-667.08	1034.6	263.13	-554.59	935.01	503.07	-537.67	940.6	115.86	-557.05	1099	482.74	-553.92	1097.8	149.48	-681.98	1000.7	322.24	-484.86	709.32	492.58	-430.02	643.03	437.14	-493.88	622.68	466.37	-425.54	729.3	462.38	-497.03	528.47	445.67	-486.55	518.72	314.4	-590.43	292.84	424.69	-533.82	223.12	423.24	-595.61	218.43	405.35	-527.16	299.13	442.18	-555.2	123	403.26	-544.46	149.52	316.28	-626.58	75.712	338.55	-617.39	43.746	310.8	-620.1	47.87	375.96	-457.67	35.477	437.11	-417.6	42.783	317.54	-356.42	59.448	365.73	-437.44	720.72	112.64	-335.1	685.41	135.74	-389.71	638.45	125.07	-374.72	766.9	124.14	-357.86	560.36	131.99	-510.68	431.93	148.52	-486.97	346.75	151.4	-551.47	373.61	168.48	-450.84	406.01	136.08	-606.5	248.78	182.74	-561.69	241.92	264.93	-677.66	241.55	244.98	-678.51	213.82	276.63	-694.36	219.43	217.11	-556.76	114.89	142.35	-517.85	108	255.66	-465.25	86.024	195.15	-526.27	1574.7	337.92	-653.86	1305.1	330
182	0.75417	-384.92	1265.8	320.25	-461.45	1529.1	487.77	-485.01	1556.9	169.22	-466.5	1833.4	328.48	-465.34	1016.6	447.68	-458.59	1022.5	198.04	-665.29	1036.6	355.26	-661.57	1035.1	263.29	-549.59	935.49	503.21	-531.74	941.29	115.99	-551.52	1099.5	482.92	-548.44	1098.4	149.7	-676.5	1001.3	322.4	-481.66	709.38	492.56	-427.3	642.61	437.17	-491.37	622.8	466.32	-422.12	728.83	462.42	-495.39	528.52	445.55	-484.84	518.7	314.2	-589.65	293.23	424.52	-533.28	223.34	423.15	-595.03	218.84	405.16	-526.47	299.29	441.94	-554.9	123.17	403.14	-544.1	149.67	316.13	-626.4	75.937	338.45	-617.38	43.922	310.71	-619.98	48.127	375.89	-457.61	35.472	437.09	-417.5	42.6	317.46	-356.26	59.052	365.71	-430.15	722.11	112.76	-327.67	687.47	136.38	-381.93	640.15	125.35	-367.79	768.7	124.65	-349.78	561.86	132.62	-500.15	429.88	149.17	-474.51	345.29	152	-539.52	370.67	169.12	-439.78	405.34	136.66	-591.65	244.53	183.32	-546.63	238.66	265.45	-662.68	235.49	245.65	-662.75	207.67	277.24	-678.87	213.02	217.78	-538.62	112.09	142.68	-499.44	106.04	255.94	-446.37	85.473	195.32	-520.79	1575.2	337.95	-648.32	1305.5	330.35
183	0.75833	-379.43	1266.5	320.37	-455.88	1529.8	487.79	-479.66	1557.3	169.23	-461.07	1833.8	328.24	-459.95	1016.8	447.95	-453.09	1023	198.35	-659.8	1037.1	355.41	-656.05	1035.5	263.44	-544.58	935.94	503.36	-525.84	941.94	116.11	-545.95	1100	483.09	-542.96	1099	149.92	-671.02	1001.8	322.57	-478.46	709.42	492.52	-424.57	642.19	437.21	-488.86	622.91	466.27	-418.69	728.36	462.45	-493.75	528.56	445.43	-483.14	518.68	314.01	-588.86	293.61	424.34	-532.73	223.56	423.05	-594.44	219.24	404.96	-525.78	299.46	441.7	-554.59	123.35	403.01	-543.74	149.82	315.98	-626.21	76.159	338.35	-617.34	44.095	310.62	-619.87	48.386	375.81	-457.55	35.469	437.06	-417.4	42.421	317.38	-356.11	58.66	365.69	-422.98	723.4	112.89	-320.38	689.37	136.99	-374.32	641.72	125.64	-360.95	770.38	125.15	-341.89	563.24	133.23	-489.66	427.67	149.82	-462.05	343.73	152.57	-527.56	367.58	169.77	-428.78	404.55	137.21	-576.68	240.16	183.89	-531.46	235.3	265.93	-647.5	229.26	246.3	-646.76	201.38	277.84	-663.17	206.45	218.45	-520.34	109.28	142.98	-480.86	104.09	256.2	-427.37	84.969	195.44	-515.32	1575.6	337.97	-642.78	1306	330.69
184	0.7625	-373.94	1267	320.48	-450.33	1530.3	487.81	-474.3	1557.6	169.24	-455.63	1834.2	327.99	-454.55	1017	448.22	-447.59	1023.5	198.65	-654.3	1037.6	355.55	-650.52	1035.9	263.59	-539.58	936.35	503.5	-519.96	942.52	116.23	-540.37	1100.4	483.26	-537.47	1099.4	150.13	-665.52	1002.3	322.74	-475.26	709.45	492.47	-421.83	641.76	437.26	-486.33	623.02	466.21	-415.27	727.87	462.49	-492.1	528.6	445.31	-481.45	518.65	313.8	-588.07	294	424.17	-532.18	223.78	422.95	-593.85	219.64	404.76	-525.09	299.63	441.46	-554.29	123.52	402.88	-543.39	149.96	315.82	-626.02	76.377	338.23	-617.27	44.263	310.54	-619.75	48.646	375.72	-457.49	35.47	437.04	-417.32	42.248	317.31	-355.96	58.272	365.68	-415.93	724.59	113.04	-313.23	691.11	137.58	-366.88	643.17	125.95	-354.21	771.9	125.61	-334.21	564.48	133.83	-479.22	425.29	150.48	-449.61	342.06	153.12	-515.59	364.34	170.41	-417.84	403.65	137.74	-561.59	235.7	184.45	-516.17	231.86	266.39	-632.12	222.9	246.94	-630.56	194.99	278.43	-647.25	199.75	219.1	-501.91	106.46	143.26	-462.13	102.17	256.42	-408.26	84.529	195.53	-509.84	1576	337.98	-637.24	1306.4	331.02
185	0.76667	-368.44	1267.6	320.58	-444.78	1530.9	487.81	-468.94	1557.9	169.24	-450.2	1834.6	327.72	-449.15	1017.2	448.47	-442.1	1023.9	198.94	-648.8	1038.1	355.69	-644.98	1036.3	263.74	-534.57	936.73	503.65	-514.09	943.05	116.33	-534.76	1100.8	483.42	-531.97	1099.9	150.33	-660.02	1002.7	322.9	-472.05	709.47	492.41	-419.08	641.32	437.3	-483.8	623.12	466.14	-411.85	727.37	462.53	-490.44	528.63	445.18	-479.75	518.63	313.59	-587.27	294.38	423.99	-531.61	223.99	422.84	-593.25	220.03	404.57	-524.38	299.8	441.22	-553.98	123.69	402.75	-543.03	150.11	315.65	-625.83	76.592	338.11	-617.16	44.425	310.45	-619.63	48.907	375.62	-457.43	35.473	437	-417.24	42.08	317.24	-355.81	57.888	365.66	-409.02	725.66	113.2	-306.22	692.67	138.14	-359.62	644.47	126.27	-347.56	773.28	126.05	-326.72	565.58	134.43	-468.82	422.76	151.13	-437.18	340.3	153.64	-503.61	360.97	171.06	-406.98	402.65	138.25	-546.39	231.16	184.99	-500.77	228.37	266.81	-616.52	216.4	247.56	-614.14	188.5	279.01	-631.12	192.94	219.74	-483.33	103.66	143.51	-443.25	100.31	256.61	-389.06	84.17	195.57	-504.36	1576.4	337.97	-631.69	1306.7	331.34
